<svg xmlns="http://www.w3.org/2000/svg" width="512" height="512" viewBox="0 0 512 512">
  <defs>
    <linearGradient id="ic_launcher_app-notext-a" x1="28.687%" x2="46.064%" y1="72.681%" y2="26.224%">
      <stop offset="0%" stop-color="#4D0989"/>
      <stop offset="41.619%" stop-color="#181F93"/>
      <stop offset="100%" stop-color="#58B3DE"/>
    </linearGradient>
  </defs>
  <path fill="url(#ic_launcher_app-notext-a)" fill-rule="evenodd" d="M249,225 C289.273239,225 341.439374,228.375011 405.498405,235.125033 L405.5,247 C405.5,273.509668 384.009668,295 357.5,295 L337.804665,295 L262.653627,341.960572 C260.311807,343.423903 257.227122,342.711748 255.76379,340.369927 C255.194324,339.458592 254.933627,338.388034 255.020332,337.31691 L258.445665,295 L137.5,295 C110.990332,295 89.5,273.509668 89.5,247 L89.5015123,235.390099 C155.036841,228.463366 208.203003,225 249,225 Z M357.5,0 C384.009668,-1.19751744e-14 405.5,21.490332 405.5,48 L405.498953,215.680534 C435.487113,224.106155 465.987462,234.879311 497,248 C464.192138,239.089223 433.69128,231.531888 405.497426,225.327995 L405.499953,225.433246 C351.683788,215.811082 299.517137,211 249,211 C197.677854,211 144.511329,215.965636 89.5004251,225.896909 L89.5019201,225.657279 C61.8646621,231.798698 32.0306887,239.246271 0,248 C30.3571357,235.254638 60.1906907,224.724424 89.5006651,216.40936 L89.5,48 C89.5,21.490332 110.990332,-2.23568035e-15 137.5,0 L357.5,0 Z M301.818019,151.090097 C301.369126,152.796246 300.527395,154.266605 299.292827,155.501172 C298.058259,156.73574 296.542967,157.622405 294.746952,158.161165 C296.950709,158.770887 298.466001,159.489161 299.292827,160.315987 C300.119654,161.142814 300.961384,162.781562 301.818019,165.232233 C302.50263,162.79654 303.265838,161.157792 304.107642,160.315987 C304.949446,159.474183 306.543261,158.755909 308.889087,158.161165 C306.487131,157.173511 304.893316,156.286847 304.107642,155.501172 C303.321968,154.715498 302.55876,153.24514 301.818019,151.090097 Z M154.5,130.236544 C153.467544,134.160686 151.531564,137.54251 148.692057,140.382017 C145.852551,143.221523 142.36738,145.260851 138.236544,146.5 C143.305185,147.90236 146.790357,149.55439 148.692057,151.456091 C150.593758,153.357792 152.529739,157.126913 154.5,162.763456 C156.074605,157.161362 157.829982,153.392241 159.766132,151.456091 C161.702281,149.519941 165.368056,147.867911 170.763456,146.5 C165.238957,144.228395 161.573182,142.189067 159.766132,140.382017 C157.959081,138.574966 156.203704,135.193142 154.5,130.236544 Z M331.818019,113.090097 C331.09979,115.819935 329.75302,118.172509 327.777712,120.147817 C325.802403,122.123126 323.377936,123.541789 320.504311,124.403806 C324.030322,125.37936 326.454789,126.528599 327.777712,127.851521 C329.100634,129.174444 330.447403,131.796441 331.818019,135.717514 C332.913397,131.820406 334.134528,129.198408 335.481415,127.851521 C336.828302,126.504634 339.378406,125.355396 343.131728,124.403806 C339.288598,122.823559 336.738494,121.404896 335.481415,120.147817 C334.224337,118.890739 333.003205,116.538165 331.818019,113.090097 Z M237.403806,108.504311 C236.820244,110.722304 235.725994,112.63377 234.121056,114.238709 C232.516118,115.843647 230.546238,116.99631 228.211418,117.696699 C231.076302,118.489337 233.046181,119.423093 234.121056,120.497968 C235.19593,121.572842 236.29018,123.703215 237.403806,126.889087 C238.2938,123.722687 239.285969,121.592313 240.380315,120.497968 C241.474661,119.403622 243.54662,118.469866 246.596194,117.696699 C243.473651,116.412749 241.401692,115.260085 240.380315,114.238709 C239.358939,113.217332 238.366769,111.305866 237.403806,108.504311 Z M275.818019,74.0900974 C274.785564,78.0142396 272.849583,81.3960638 270.010077,84.23557 C267.170571,87.0750762 263.6854,89.114404 259.554564,90.3535534 C264.623205,91.755913 268.108376,93.4079432 270.010077,95.3096441 C271.911778,97.2113449 273.847759,100.980467 275.818019,106.617009 C277.392624,101.014916 279.148001,97.2457939 281.084151,95.3096441 C283.020301,93.3734942 286.686076,91.721464 292.081475,90.3535534 C286.556977,88.0819485 282.891202,86.0426207 281.084151,84.23557 C279.2771,82.4285193 277.521723,79.0466951 275.818019,74.0900974 Z" transform="translate(9 85)"/>
</svg>
